<svg width="100" height="100" viewBox="0 0 100 100" fill="none" xmlns="http://www.w3.org/2000/svg">
<path d="M98.3124 41.2463L53.3008 1.24375C52.3882 0.442104 51.2149 0 50 0C48.7851 0 47.6118 0.442104 46.6992 1.24375L1.6876 41.2463C0.922583 41.9229 0.383105 42.8175 0.1417 43.8097C-0.0997052 44.802 -0.0314625 45.8443 0.337253 46.7966C0.699937 47.7364 1.33803 48.5447 2.16797 49.1157C2.9979 49.6867 3.98098 49.9939 4.98845 49.9968H9.98973V94.9997C9.98973 96.3258 10.5167 97.5977 11.4546 98.5354C12.3925 99.4732 13.6646 100 14.991 100H85.009C86.3354 100 87.6075 99.4732 88.5454 98.5354C89.4834 97.5977 90.0103 96.3258 90.0103 94.9997V49.9968H95.0115C96.019 49.9939 97.0021 49.6867 97.832 49.1157C98.662 48.5447 99.3001 47.7364 99.6627 46.7966C100.031 45.8443 100.1 44.802 99.8583 43.8097C99.6169 42.8175 99.0774 41.9229 98.3124 41.2463V41.2463ZM55.0013 89.9994H44.9987V74.9984C44.9987 73.6723 45.5256 72.4004 46.4636 71.4627C47.4015 70.5249 48.6736 69.9981 50 69.9981C51.3264 69.9981 52.5985 70.5249 53.5364 71.4627C54.4744 72.4004 55.0013 73.6723 55.0013 74.9984V89.9994ZM80.0077 89.9994H65.0039V74.9984C65.0039 71.0199 63.4231 67.2044 60.6093 64.3911C57.7956 61.5779 53.9793 59.9975 50 59.9975C46.0207 59.9975 42.2044 61.5779 39.3907 64.3911C36.5769 67.2044 34.9961 71.0199 34.9961 74.9984V89.9994H19.9923V49.9968H80.0077V89.9994ZM18.1418 39.9962L50 11.6944L81.8582 39.9962H18.1418Z" fill="#98ABDA"/>
</svg>
