<svg width="24" height="19" viewBox="0 0 24 19" fill="none" xmlns="http://www.w3.org/2000/svg">
<path d="M23.4502 0.537402C23.2915 0.367117 23.1026 0.231959 22.8945 0.139723C22.6864 0.0474871 22.4632 0 22.2378 0C22.0123 0 21.7891 0.0474871 21.581 0.139723C21.3729 0.231959 21.184 0.367117 21.0253 0.537402L8.30279 14.0906L2.95763 8.38591C2.7928 8.21652 2.59822 8.08332 2.385 7.99393C2.17179 7.90453 1.94411 7.86069 1.71497 7.86491C1.48582 7.86913 1.2597 7.92132 1.04952 8.01851C0.839339 8.11569 0.649207 8.25597 0.489982 8.43133C0.330757 8.60669 0.205558 8.81369 0.121531 9.04053C0.0375047 9.26736 -0.00370326 9.50959 0.000261141 9.75336C0.00422555 9.99714 0.0532845 10.2377 0.144636 10.4613C0.235988 10.6849 0.367844 10.8872 0.532675 11.0566L7.09031 18.033C7.24906 18.2033 7.43794 18.3385 7.64604 18.4307C7.85414 18.5229 8.07735 18.5704 8.30279 18.5704C8.52822 18.5704 8.75143 18.5229 8.95953 18.4307C9.16763 18.3385 9.35651 18.2033 9.51526 18.033L23.4502 3.20808C23.6236 3.03795 23.7619 2.83147 23.8565 2.60164C23.9511 2.37182 24 2.12364 24 1.87274C24 1.62184 23.9511 1.37366 23.8565 1.14383C23.7619 0.91401 23.6236 0.70753 23.4502 0.537402Z" fill="#768BC0"/>
</svg>
