<svg width="101" height="101" viewBox="0 0 101 101" fill="none" xmlns="http://www.w3.org/2000/svg">
<path d="M96.3615 72.6568C92.2143 68.3954 80.4261 60.4125 72.6998 60.4125C70.9103 60.4125 69.348 60.8102 68.0698 61.6341C64.2918 64.0488 61.2809 65.9238 59.8322 65.9238C59.0369 65.9238 58.1847 65.2136 56.3099 63.5943L55.9975 63.3102C50.7993 58.7932 49.6915 57.6284 47.6747 55.5261L47.1634 54.9863C46.7941 54.617 46.4817 54.2761 46.1692 53.9636C44.4081 52.1454 43.1299 50.8386 38.6134 45.725L38.4146 45.4977C36.2558 43.0545 34.8355 41.4636 34.7503 40.2988C34.6651 39.1625 35.6593 37.3159 38.1873 33.8784C41.2551 29.7307 41.3687 24.617 38.5566 18.6795C36.3126 13.992 32.6483 9.50339 29.4101 5.55452L29.126 5.21361C26.3423 1.80452 23.1041 0.0999756 19.4966 0.0999756C15.4915 0.0999756 12.168 2.25907 10.4069 3.39543C10.2649 3.48066 10.1228 3.59429 9.98081 3.67952C6.03247 6.17952 3.16353 9.61702 2.08412 13.1113C0.465019 18.367 -0.614383 25.1852 7.14028 39.3613C13.8439 51.6341 19.9227 59.8727 29.5805 69.7875C38.6702 79.1057 42.7038 82.117 51.7367 88.6511C61.7922 95.9238 71.45 100.1 78.2105 100.1C84.488 100.1 89.4306 100.1 96.4751 91.6057C103.86 82.6852 100.793 77.2307 96.3615 72.6568ZM93.0949 88.5375C87.4138 95.4125 84.1472 95.4125 78.2389 95.4125C72.4726 95.4125 63.5249 91.4352 54.3216 84.8159C45.5159 78.4522 41.596 75.5261 32.7619 66.4636C23.4165 56.8897 17.5366 48.9068 11.0602 37.0602C4.21452 24.5318 4.98147 19.0488 6.37333 14.5318C7.11187 12.117 9.32749 9.53179 12.3385 7.65679C12.4805 7.57157 12.6225 7.45793 12.7929 7.3727C14.2984 6.40679 16.7981 4.78748 19.525 4.78748C21.7974 4.78748 23.8142 5.92384 25.7458 8.28179L26.0298 8.6227C33.2732 17.4863 38.9259 25.3272 34.6651 31.1227C31.6541 35.1852 30.0634 37.9409 30.319 40.7818C30.5463 43.5375 32.3926 45.6113 35.1764 48.7363L35.3752 48.9636C39.9485 54.1341 41.2551 55.4977 43.073 57.3443C43.3855 57.6568 43.698 57.9977 44.0672 58.367L44.5785 58.9068C46.6805 61.0943 47.8451 62.2875 53.1853 66.975L53.4978 67.2591C55.7702 69.2477 57.4462 70.6966 59.889 70.6966C62.4171 70.6966 65.2008 69.1057 70.4842 65.725C71.0239 65.3841 71.7909 65.1852 72.7566 65.1852C78.9206 65.1852 89.5442 72.2307 93.2653 76.0659C96.6739 79.5318 98.3783 82.1454 93.0949 88.5375V88.5375Z" fill="#98ABDA"/>
</svg>
